<?xml version="1.0" encoding="utf-8"?>
<!-- Generator: Adobe Illustrator 24.1.0, SVG Export Plug-In . SVG Version: 6.00 Build 0)  -->
<svg version="1.1" id="Layer_1" xmlns="http://www.w3.org/2000/svg" xmlns:xlink="http://www.w3.org/1999/xlink" x="0px" y="0px"
	 width="120px" height="35px" viewBox="0 0 120 35" style="enable-background:new 0 0 120 35;" xml:space="preserve">
<style type="text/css">
	.st0{fill-rule:evenodd;clip-rule:evenodd;fill:#203340;}
	.st1{fill-rule:evenodd;clip-rule:evenodd;fill:#C30B55;}
</style>
<g>
	<path class="st0" d="M43.5,24.4V5c0-0.8-0.5-1.2-1.5-1.2S40.5,4.2,40.5,5v20.6c0,1.1,0.5,1.6,1.6,1.6h9.8c0.8,0,1.2-0.5,1.2-1.4
		c0-0.9-0.4-1.4-1.2-1.4H43.5z M59.9,5.9c0-1.1-0.8-1.9-2-1.9c-1.1,0-2,0.8-2,1.9c0,1.1,0.8,2,2,2C59.1,7.9,59.9,7.1,59.9,5.9z
		 M59.4,12.4c0-0.8-0.5-1.2-1.5-1.2c-1,0-1.5,0.4-1.5,1.2v13.6c0,0.8,0.5,1.2,1.5,1.2c1,0,1.5-0.4,1.5-1.2V12.4z M70.6,23.8
		l-4.5-11.2c-0.4-1-0.7-1.4-1.8-1.4c-1,0-1.4,0.4-1.4,0.9c0,0.3,0.1,0.7,0.2,1.1l5.3,12.7c0.4,1,0.7,1.5,2.1,1.5
		c1.2,0,1.6-0.4,2.1-1.5L78,13.1c0.1-0.4,0.2-0.8,0.2-1.1c0-0.5-0.4-0.9-1.4-0.9c-1,0-1.4,0.3-1.7,1.4L70.6,23.8z M93,23.3
		c-0.4,0-0.7,0.2-1.2,0.6c-1,0.6-2.1,0.9-3.3,0.9c-3,0-4.5-1.8-4.8-4.7h9.1c1.2,0,1.9-0.2,1.9-2.1c0-4-2.6-7-6.7-7
		c-4.4,0-7.2,3.3-7.2,8.3c0,5,2.9,8.1,7.6,8.1c2,0,3.6-0.5,4.9-1.4c0.7-0.5,1-0.9,1-1.4C94.3,24.1,93.9,23.3,93,23.3z M87.8,13.4
		c2.5,0,3.9,1.9,3.9,4.5h-8C84,15.1,85.4,13.4,87.8,13.4z M101.6,4c0-0.8-0.5-1.2-1.5-1.2c-1,0-1.5,0.4-1.5,1.2v22.1
		c0,0.8,0.5,1.2,1.5,1.2c1,0,1.5-0.4,1.5-1.2V4z M118.6,11.2c-1.3,0-1.5,0.6-1.6,1.5c-0.6,2.8-2.4,8.1-4,11.2l-4.6-11.5
		c-0.4-0.9-0.6-1.3-1.9-1.3c-1,0-1.4,0.4-1.4,0.9c0,0.3,0.1,0.7,0.3,1l5.8,13.8c-0.6,1-1.9,2.9-3.5,4.5c-0.4,0.5-0.9,0.9-0.9,1.4
		c0,0.8,0.8,1.4,1.6,1.4c0.6,0,1.1-0.4,1.8-1.2c4-4.4,7.8-13,9.4-18.8c0.2-0.8,0.4-1.6,0.4-2C120,11.6,119.7,11.2,118.6,11.2z"/>
	<path class="st1" d="M20.3,18.3c-0.1,0-0.2-0.1-0.2-0.2v-1.8c0-2.4-2-4.4-4.4-4.4H6.8c-2.4,0-4.4,2-4.4,4.4s2,4.4,4.4,4.4h3.9
		c0.3,0,0.5,0.2,0.5,0.5v3.9c0,1.2,0.5,2.3,1.3,3.1c0.8,0.8,2,1.3,3.1,1.3c2.4,0,4.4-2,4.4-4.4v-0.7c0-0.1,0.1-0.2,0.2-0.2h2.1
		c0.1,0,0.2,0.1,0.2,0.2v0.7c0,3.7-3.1,6.8-6.8,6.8c-1.8,0-3.5-0.7-4.8-2c-1.3-1.3-2-3-2-4.8v-2.1H6.8c-3.8,0-6.8-3-6.8-6.8
		c0-3.7,3.1-6.8,6.8-6.8h8.9c3.8,0,6.8,3,6.8,6.8v1.8c0,0.1-0.1,0.2-0.2,0.2H20.3z M26,22.5h-8.9c-3.8,0-6.8-3-6.8-6.8V14
		c0-0.1,0.1-0.2,0.2-0.2h2.1c0.1,0,0.2,0.1,0.2,0.2v1.8c0,2.4,2,4.4,4.4,4.4H26c2.4,0,4.4-2,4.4-4.4c0-2.4-2-4.4-4.4-4.4H22
		c-0.3,0-0.5-0.2-0.5-0.5V6.9c0-1.2-0.5-2.3-1.3-3.1c-0.8-0.8-2-1.3-3.1-1.3c-2.4,0-4.4,2-4.4,4.4v0.7c0,0.1-0.1,0.2-0.2,0.2h-2.1
		c-0.1,0-0.2-0.1-0.2-0.2V6.9c0-3.7,3.1-6.8,6.8-6.8c1.8,0,3.5,0.7,4.8,2c1.3,1.3,2,3,2,4.8V9H26c3.8,0,6.8,3,6.8,6.8
		S29.7,22.5,26,22.5z"/>
</g>
</svg>
