<?xml version="1.0" encoding="utf-8"?>
<!-- Generator: Adobe Illustrator 21.0.0, SVG Export Plug-In . SVG Version: 6.00 Build 0)  -->
<svg version="1.1" id="Layer_1" xmlns="http://www.w3.org/2000/svg" xmlns:xlink="http://www.w3.org/1999/xlink" x="0px" y="0px"
	 viewBox="0 0 160 46" style="enable-background:new 0 0 160 46;" xml:space="preserve">
<style type="text/css">
	.st0{fill:#FFFFFF;}
</style>
<g>
	<path class="st0" d="M58,32.3V6.4c0-1.1-0.7-1.7-2-1.7s-2,0.6-2,1.7v27.4c0,1.5,0.6,2.1,2.1,2.1h13.1c1.1,0,1.7-0.6,1.7-1.8
		c0-1.2-0.6-1.8-1.7-1.8H58z M79.9,7.7c0-1.5-1.1-2.6-2.6-2.6s-2.6,1.1-2.6,2.6c0,1.5,1.1,2.6,2.6,2.6S79.9,9.2,79.9,7.7z
		 M79.3,16.3c0-1.1-0.7-1.7-2-1.7c-1.3,0-1.9,0.6-1.9,1.7v18.2c0,1.1,0.7,1.7,2,1.7c1.3,0,1.9-0.6,1.9-1.7V16.3z M94.2,31.4l-6-15
		c-0.5-1.4-1-1.8-2.4-1.8c-1.3,0-1.8,0.5-1.8,1.1c0,0.4,0.1,1,0.3,1.5l7,16.9c0.6,1.4,1,2,2.8,2c1.6,0,2.1-0.5,2.8-2l7.2-16.9
		c0.2-0.5,0.3-1,0.3-1.5c0-0.7-0.5-1.1-1.8-1.1c-1.4,0-1.8,0.4-2.3,1.8L94.2,31.4z M124,30.9c-0.5,0-1,0.3-1.7,0.8
		c-1.3,0.9-2.8,1.2-4.4,1.2c-4,0-6-2.4-6.4-6.3h12.1c1.6,0,2.5-0.3,2.5-2.8c0-5.4-3.5-9.3-9-9.3c-5.8,0-9.6,4.4-9.6,11
		c0,6.7,3.8,10.9,10.2,10.9c2.6,0,4.8-0.6,6.6-1.8c1-0.6,1.4-1.2,1.4-1.9C125.7,31.9,125.2,30.9,124,30.9z M117.1,17.6
		c3.4,0,5.2,2.5,5.2,5.9h-10.7C112,19.8,113.9,17.6,117.1,17.6z M135.5,5.1c0-1.1-0.7-1.7-2-1.7c-1.3,0-1.9,0.6-1.9,1.7v29.4
		c0,1.1,0.7,1.7,2,1.7c1.3,0,1.9-0.6,1.9-1.7V5.1z M158.2,14.6c-1.7,0-1.9,0.8-2.2,2c-0.8,3.8-3.2,10.9-5.4,15l-6.1-15.3
		c-0.5-1.2-0.9-1.8-2.5-1.8c-1.4,0-1.9,0.5-1.9,1.2c0,0.4,0.2,0.9,0.4,1.4l7.8,18.4c-0.8,1.4-2.5,3.9-4.7,6
		c-0.6,0.6-1.1,1.2-1.1,1.9c0,1,1.1,1.9,2.1,1.9c0.8,0,1.4-0.5,2.4-1.7c5.4-5.9,10.5-17.3,12.5-25.1c0.3-1.1,0.5-2.1,0.5-2.7
		C160,15.2,159.6,14.6,158.2,14.6z M27.1,24.2c-0.1,0-0.2-0.1-0.2-0.2v-2.4c0-3.2-2.7-5.9-5.9-5.9H9.1c-3.3,0-5.9,2.6-5.9,5.9
		s2.7,5.9,5.9,5.9h5.2c0.4,0,0.7,0.3,0.7,0.7v5.2c0,1.6,0.6,3,1.7,4.2c1.1,1.1,2.6,1.7,4.2,1.7c3.3,0,5.9-2.6,5.9-5.9v-0.9
		c0-0.1,0.1-0.2,0.2-0.2h2.7c0.1,0,0.2,0.1,0.2,0.2v0.9c0,5-4.1,9-9.1,9c-2.4,0-4.7-0.9-6.4-2.6c-1.7-1.7-2.7-4-2.7-6.4v-2.7H9.1
		c-5,0-9.1-4-9.1-9c0-5,4.1-9,9.1-9h11.9c5,0,9.1,4,9.1,9V24c0,0.1-0.1,0.2-0.2,0.2H27.1z M34.6,29.8H22.8c-5,0-9.1-4-9.1-9v-2.4
		c0-0.1,0.1-0.2,0.2-0.2h2.7c0.1,0,0.2,0.1,0.2,0.2v2.4c0,3.2,2.7,5.9,5.9,5.9h11.9c3.3,0,5.9-2.6,5.9-5.9s-2.7-5.9-5.9-5.9h-5.2
		c-0.4,0-0.7-0.3-0.7-0.7V9c0-1.6-0.6-3-1.7-4.2c-1.1-1.1-2.6-1.7-4.2-1.7c-3.3,0-5.9,2.6-5.9,5.9v0.9c0,0.1-0.1,0.2-0.2,0.2h-2.7
		c-0.1,0-0.2-0.1-0.2-0.2V9c0-5,4.1-9,9.1-9c2.4,0,4.7,0.9,6.4,2.6c1.7,1.7,2.7,4,2.7,6.4v2.7h2.8c5,0,9.1,4,9.1,9
		S39.6,29.8,34.6,29.8z"/>
</g>
</svg>
